<?xml version="1.0" encoding="UTF-8" standalone="no"?>
<svg
   width="16.000025"
   height="15.999997"
   viewBox="0 0 16.000025 15.999997"
   fill="none"
   version="1.1"
   id="svg11"
   sodipodi:docname="arrow.svg"
   inkscape:version="1.2.1 (9c6d41e4, 2022-07-14)"
   xmlns:inkscape="http://www.inkscape.org/namespaces/inkscape"
   xmlns:sodipodi="http://sodipodi.sourceforge.net/DTD/sodipodi-0.dtd"
   xmlns="http://www.w3.org/2000/svg"
   xmlns:svg="http://www.w3.org/2000/svg">
  <defs
     id="defs15" />
  <sodipodi:namedview
     id="namedview13"
     pagecolor="#ffffff"
     bordercolor="#000000"
     borderopacity="0.25"
     inkscape:showpageshadow="2"
     inkscape:pageopacity="0.0"
     inkscape:pagecheckerboard="0"
     inkscape:deskcolor="#d1d1d1"
     showgrid="false"
     inkscape:zoom="9.8333333"
     inkscape:cx="8.0847458"
     inkscape:cy="8.0847458"
     inkscape:window-width="2560"
     inkscape:window-height="1387"
     inkscape:window-x="0"
     inkscape:window-y="25"
     inkscape:window-maximized="1"
     inkscape:current-layer="svg11" />
  <path
     d="M 0.88889,8.8888975 H 15.1111 c 0.4909,0 0.8889,-0.398 0.8889,-0.8889 0,-0.4909 -0.398,-0.8889 -0.8889,-0.8889 H 0.88889 c -0.49092,0 -0.88889,0.398 -0.88889,0.8889 0,0.4909 0.39797,0.8889 0.88889,0.8889 z M 7.3715,14.482597 c -0.3472,0.3471 -0.3472,0.9099 0,1.257 0.3471,0.3472 0.9099,0.3472 1.257,0 l 7.1112,-7.1110995 c 0.3471,-0.3471 0.3471,-0.9099 0,-1.257 l -7.1112,-7.11115 c -0.3471,-0.34713 -0.9099,-0.34713 -1.257,0 -0.3472,0.34713 -0.3472,0.90995 0,1.25708 l 6.4825,6.48257 z"
     fill="#ffffff"
     id="path9"  transform="translate(16) rotate(90)"/>
</svg>



