<?xml version="1.0" encoding="UTF-8" standalone="no"?>
<svg
   width="16.000025"
   height="15.999997"
   viewBox="0 0 16.000025 15.999997"
   fill="none"
   version="1.1"
   id="svg11"
   sodipodi:docname="arrowUp.svg"
   inkscape:version="1.2.1 (9c6d41e, 2022-07-14)"
   xmlns:inkscape="http://www.inkscape.org/namespaces/inkscape"
   xmlns:sodipodi="http://sodipodi.sourceforge.net/DTD/sodipodi-0.dtd"
   xmlns="http://www.w3.org/2000/svg"
   xmlns:svg="http://www.w3.org/2000/svg">
  <defs
     id="defs15" />
  <sodipodi:namedview
     id="namedview13"
     pagecolor="#ffffff"
     bordercolor="#000000"
     borderopacity="0.25"
     inkscape:showpageshadow="2"
     inkscape:pageopacity="0.0"
     inkscape:pagecheckerboard="0"
     inkscape:deskcolor="#d1d1d1"
     showgrid="false"
     inkscape:zoom="9.8333333"
     inkscape:cx="8.1355932"
     inkscape:cy="8.1355932"
     inkscape:window-width="1309"
     inkscape:window-height="456"
     inkscape:window-x="1566"
     inkscape:window-y="205"
     inkscape:window-maximized="0"
     inkscape:current-layer="svg11" />
  <path
     d="M 8.8889121,15.111121 V 0.888911 c 0,-0.4909 -0.398,-0.8889 -0.8889,-0.8889 -0.4909,0 -0.8889,0.398 -0.8889,0.8889 v 14.22221 c 0,0.49092 0.398,0.88889 0.8889,0.88889 0.4909,0 0.8889,-0.39797 0.8889,-0.88889 z M 14.482611,8.6285107 c 0.3471,0.3472 0.9099,0.3472 1.257,0 0.3472,-0.3471 0.3472,-0.9099 0,-1.257 L 8.6285121,0.260311 c -0.3471,-0.3471 -0.9099001,-0.3471 -1.2570002,0 L 0.2603615,7.3715107 c -0.34713,0.3471 -0.34713,0.9099 0,1.257 0.34713,0.3472 0.9099499,0.3472 1.2570799,0 L 8.0000119,2.146011 Z"
     fill="#ffffff"
     id="path9" />
</svg>
